<svg id="s-0" xmlns="http://www.w3.org/2000/svg" viewBox="0 0 1000 1000"><defs><style>.cls-1{fill:#fff;}.cls-2{fill:#1ebbd7;}</style></defs><rect class="cls-1" width="1000" height="1000"/><g id="icon-0"><path class="cls-2" d="M422.76,486.26a92.53,92.53,0,1,1,92.53,92.53A92.53,92.53,0,0,1,422.76,486.26Zm92.53,85.53a85.54,85.54,0,1,0-85.53-85.53A85.53,85.53,0,0,0,515.29,571.79Z" transform="translate(-22.21 4.61)"/><path class="cls-2" d="M495.05,474.57V498l20.24,11.68L535.53,498V474.57l-20.24-11.69ZM527,493l-11.71,6.76L503.58,493V479.5l11.71-6.76L527,479.5Z" transform="translate(-22.21 4.61)"/><path class="cls-2" d="M515.29,436.2l-43.35,25v50.06l43.35,25,43.35-25V461.23Zm34.5,70-34.5,19.92L480.8,506.17V466.34l34.49-19.92,34.5,19.92Z" transform="translate(-22.21 4.61)"/><path class="cls-2" d="M483.54,467.92v36.67l31.75,18.34,31.76-18.34V467.92l-31.76-18.33Zm54.74,31.61-23,13.27-23-13.27V473l23-13.27,23,13.27Z" transform="translate(-22.21 4.61)"/></g></svg>